<svg xmlns="http://www.w3.org/2000/svg" width="115" height="32" viewBox="0 0 115 32" fill="none">
  <defs>
    <linearGradient id="ln-grad" x1="0%" y1="0%" x2="100%" y2="0%">
      <stop offset="0%" stop-color="#0a66c2"/>
      <stop offset="100%" stop-color="#0077b5"/>
    </linearGradient>
  </defs>
  <rect width="115" height="32" rx="6" fill="url(#ln-grad)"/>
  <g transform="translate(10, 8) scale(0.6667)">
    <path d="M7 10h2.5v7H7v-7zm1.25-1.8a1.3 1.3 0 110-2.6 1.3 1.3 0 010 2.6zm3.25 1.8H14v.96c.38-.72 1.2-1.16 2.1-1.16C17.7 9.8 18 11 18 12.6V17h-2.5v-4c0-.75-.2-1.4-1.1-1.4-.96 0-1.4.7-1.4 1.5V17H11v-7z" fill="white"/>
  </g>
  <text x="34" y="20.5" fill="white" font-family="-apple-system, BlinkMacSystemFont, 'Segoe UI', Helvetica, Arial, sans-serif" font-size="13" font-weight="600">LinkedIn</text>
</svg>
