<svg xmlns="http://www.w3.org/2000/svg" width="130" height="32" viewBox="0 0 130 32" fill="none">
  <defs>
    <linearGradient id="pf-grad" x1="0%" y1="0%" x2="100%" y2="0%">
      <stop offset="0%" stop-color="#0f6e56"/>
      <stop offset="100%" stop-color="#0a5441"/>
    </linearGradient>
  </defs>
  <rect width="130" height="32" rx="6" fill="url(#pf-grad)"/>
  <g transform="translate(12, 6.5) scale(0.85)">
    <path d="M12 3.5C7.3 3.5 3.5 7.3 3.5 12S7.3 20.5 12 20.5 20.5 16.7 20.5 12 16.7 3.5 12 3.5zm0 1.5c1.4 0 2.8.9 3.9 2.5H8.1C9.2 5.9 10.6 5 12 5zm-5.9 4h11.8c.4.9.6 1.9.6 3H5.5c0-1.1.2-2.1.6-3zM5.5 13.5h13c-.3 1.1-.8 2.1-1.4 2.9H6.9c-.6-.8-1.1-1.8-1.4-2.9zm6.5 5.5c-1.5 0-2.9-.9-4-2.5h8c-1.1 1.6-2.5 2.5-4 2.5z" fill="white"/>
  </g>
  <text x="38" y="21" fill="white" font-family="-apple-system, BlinkMacSystemFont, 'Segoe UI', Helvetica, Arial, sans-serif" font-size="14" font-weight="bold">Portfolio</text>
</svg>
