<svg xmlns="http://www.w3.org/2000/svg" width="110" height="100" viewBox="0 0 110 100" fill="none">
  <style>
    .card {
      fill: rgba(0, 0, 0, 0.02);
      stroke: rgba(0, 0, 0, 0.08);
    }
    .text {
      fill: #57606a;
      font-family: -apple-system, BlinkMacSystemFont, "Segoe UI", Helvetica, Arial, sans-serif;
      font-size: 12px;
      font-weight: 500;
    }
    @media (prefers-color-scheme: dark) {
      .card {
        fill: rgba(255, 255, 255, 0.03);
        stroke: rgba(255, 255, 255, 0.15);
      }
      .text {
        fill: #8b949e;
      }
    }
  </style>
  <rect class="card" x="0.5" y="0.5" width="109" height="99" rx="16" stroke-width="1"/>
  <g transform="translate(39, 18) scale(1.3333)">
    <rect width="24" height="24" rx="4" fill="#5865F2"/>
    <path d="M18.59 5.89a15.3 15.3 0 00-3.78-1.18.06.06 0 00-.06.03c-.16.28-.34.65-.47.94a14.1 14.1 0 00-4.56 0 9.5 9.5 0 00-.47-.94.06.06 0 00-.06-.03 15.27 15.27 0 00-3.78 1.18.05.05 0 00-.02.02C3.42 9.2 2.8 12.42 3.1 15.6a.07.07 0 00.03.04 15.36 15.36 0 004.63 2.35.06.06 0 00.07-.02c.36-.49.68-1 .95-1.55a.06.06 0 00-.03-.08 10.1 10.1 0 01-1.45-.7.06.06 0 010-.1c.1-.07.2-.15.29-.22a.06.06 0 01.06-.01c3.04 1.39 6.33 1.39 9.33 0a.06.06 0 01.06.01c.1.08.2.15.29.22a.06.06 0 010 .1 9.54 9.54 0 01-1.45.69.06.06 0 00-.03.09c.28.54.6 1.06.95 1.55a.06.06 0 00.07.02 15.3 15.3 0 004.64-2.35.07.07 0 00.02-.04c.35-3.66-.6-6.84-2.52-9.67a.05.05 0 00-.02-.03zM9.35 13.67c-.98 0-1.79-.9-1.79-2.01s.79-2.01 1.79-2.01c1.01 0 1.81.91 1.79 2.01 0 1.11-.79 2.01-1.79 2.01zm6.61 0c-.98 0-1.79-.9-1.79-2.01s.79-2.01 1.79-2.01c1.01 0 1.81.91 1.79 2.01 0 1.11-.78 2.01-1.79 2.01z" fill="white"/>
  </g>
  <text class="text" x="55" y="80" text-anchor="middle">Discord</text>
</svg>
