<svg xmlns="http://www.w3.org/2000/svg" width="110" height="100" viewBox="0 0 110 100" fill="none">
  <style>
    .card {
      fill: #f6f8fa;
      stroke: #d0d7de;
      transition: all 0.15s ease;
    }
    .text {
      fill: #57606a;
      font-family: -apple-system, BlinkMacSystemFont, "Segoe UI", Helvetica, Arial, sans-serif;
      font-size: 11px;
      font-weight: 500;
      letter-spacing: 0.03em;
    }
    .icon-bg {
      fill: #FDE8E8;
    }
    @media (prefers-color-scheme: dark) {
      .card {
        fill: #161b22;
        stroke: #30363d;
      }
      .text {
        fill: #8b949e;
      }
      .icon-bg {
        fill: #3B1414;
      }
    }
  </style>
  
  <rect class="card" x="0.5" y="0.5" width="109" height="99" rx="16" stroke-width="1"/>
  <rect class="icon-bg" x="35" y="15" width="40" height="40" rx="12"/>
  <g transform="translate(44, 24) scale(0.9167)">
    <rect width="24" height="24" rx="4" fill="white"/>
    <path d="M3 6.5L12 13l9-6.5V17a1 1 0 01-1 1H4a1 1 0 01-1-1V6.5z" fill="#EA4335"/>
    <path d="M3 6.5L12 13l9-6.5" stroke="#FBBC05" stroke-width="1.5"/>
    <path d="M3 6.5A1 1 0 014 5.5h16a1 1 0 011 1L12 13 3 6.5z" fill="#4285F4"/>
    <path d="M3 6.5L12 13" stroke="#34A853" stroke-width="1.2"/>
    <path d="M12 13l9-6.5" stroke="#EA4335" stroke-width="1.2"/>
  </g>
  <text class="text" x="55" y="78" text-anchor="middle">GMAIL</text>
</svg>
