<svg xmlns="http://www.w3.org/2000/svg" width="110" height="100" viewBox="0 0 110 100" fill="none">
  <style>
    .card {
      fill: rgba(0, 0, 0, 0.02);
      stroke: rgba(0, 0, 0, 0.08);
    }
    .text {
      fill: #57606a;
      font-family: -apple-system, BlinkMacSystemFont, "Segoe UI", Helvetica, Arial, sans-serif;
      font-size: 12px;
      font-weight: 500;
    }
    @media (prefers-color-scheme: dark) {
      .card {
        fill: rgba(255, 255, 255, 0.03);
        stroke: rgba(255, 255, 255, 0.15);
      }
      .text {
        fill: #8b949e;
      }
    }
  </style>
  <rect class="card" x="0.5" y="0.5" width="109" height="99" rx="16" stroke-width="1"/>
  <g transform="translate(39, 18) scale(1.3333)">
    <rect width="24" height="24" rx="4" fill="white"/>
    <path d="M3 6.5L12 13l9-6.5V17a1 1 0 01-1 1H4a1 1 0 01-1-1V6.5z" fill="#EA4335"/>
    <path d="M3 6.5L12 13l9-6.5" stroke="#FBBC05" stroke-width="1.5"/>
    <path d="M3 6.5A1 1 0 014 5.5h16a1 1 0 011 1L12 13 3 6.5z" fill="#4285F4"/>
    <path d="M3 6.5L12 13" stroke="#34A853" stroke-width="1.2"/>
    <path d="M12 13l9-6.5" stroke="#EA4335" stroke-width="1.2"/>
  </g>
  <text class="text" x="55" y="80" text-anchor="middle">Gmail</text>
</svg>
