<svg xmlns="http://www.w3.org/2000/svg" width="110" height="100" viewBox="0 0 110 100" fill="none">
  <style>
    .card {
      fill: rgba(0, 0, 0, 0.02);
      stroke: rgba(0, 0, 0, 0.08);
    }
    .text {
      fill: #57606a;
      font-family: -apple-system, BlinkMacSystemFont, "Segoe UI", Helvetica, Arial, sans-serif;
      font-size: 12px;
      font-weight: 500;
    }
    @media (prefers-color-scheme: dark) {
      .card {
        fill: rgba(255, 255, 255, 0.03);
        stroke: rgba(255, 255, 255, 0.15);
      }
      .text {
        fill: #8b949e;
      }
    }
  </style>
  <rect class="card" x="0.5" y="0.5" width="109" height="99" rx="16" stroke-width="1"/>
  <g transform="translate(39, 18) scale(1.3333)">
    <rect width="24" height="24" rx="4" fill="#0A66C2"/>
    <path d="M7 10h2.5v7H7v-7zm1.25-1.8a1.3 1.3 0 110-2.6 1.3 1.3 0 010 2.6zm3.25 1.8H14v.96c.38-.72 1.2-1.16 2.1-1.16C17.7 9.8 18 11 18 12.6V17h-2.5v-4c0-.75-.2-1.4-1.1-1.4-.96 0-1.4.7-1.4 1.5V17H11v-7z" fill="white"/>
  </g>
  <text class="text" x="55" y="80" text-anchor="middle">LinkedIn</text>
</svg>
