<svg xmlns="http://www.w3.org/2000/svg" width="110" height="100" viewBox="0 0 110 100" fill="none">
  <style>
    .card {
      fill: rgba(0, 0, 0, 0.02);
      stroke: rgba(0, 0, 0, 0.08);
    }
    .text {
      fill: #57606a;
      font-family: -apple-system, BlinkMacSystemFont, "Segoe UI", Helvetica, Arial, sans-serif;
      font-size: 12px;
      font-weight: 500;
    }
    @media (prefers-color-scheme: dark) {
      .card {
        fill: rgba(255, 255, 255, 0.03);
        stroke: rgba(255, 255, 255, 0.15);
      }
      .text {
        fill: #8b949e;
      }
    }
  </style>
  <rect class="card" x="0.5" y="0.5" width="109" height="99" rx="16" stroke-width="1"/>
  <g transform="translate(39, 18) scale(1.3333)">
    <rect width="24" height="24" rx="4" fill="#0F6E56"/>
    <path d="M12 3.5C7.3 3.5 3.5 7.3 3.5 12S7.3 20.5 12 20.5 20.5 16.7 20.5 12 16.7 3.5 12 3.5zm0 1.5c1.4 0 2.8.9 3.9 2.5H8.1C9.2 5.9 10.6 5 12 5zm-5.9 4h11.8c.4.9.6 1.9.6 3H5.5c0-1.1.2-2.1.6-3zM5.5 13.5h13c-.3 1.1-.8 2.1-1.4 2.9H6.9c-.6-.8-1.1-1.8-1.4-2.9zm6.5 5.5c-1.5 0-2.9-.9-4-2.5h8c-1.1 1.6-2.5 2.5-4 2.5z" fill="white"/>
  </g>
  <text class="text" x="55" y="80" text-anchor="middle">Portfolio</text>
</svg>
