<svg xmlns="http://www.w3.org/2000/svg" width="110" height="100" viewBox="0 0 110 100" fill="none">
  <style>
    .card {
      fill: rgba(0, 0, 0, 0.02);
      stroke: rgba(0, 0, 0, 0.08);
    }
    .text {
      fill: #57606a;
      font-family: -apple-system, BlinkMacSystemFont, "Segoe UI", Helvetica, Arial, sans-serif;
      font-size: 12px;
      font-weight: 500;
    }
    @media (prefers-color-scheme: dark) {
      .card {
        fill: rgba(255, 255, 255, 0.03);
        stroke: rgba(255, 255, 255, 0.15);
      }
      .text {
        fill: #8b949e;
      }
    }
  </style>
  <rect class="card" x="0.5" y="0.5" width="109" height="99" rx="16" stroke-width="1"/>
  <g transform="translate(39, 18) scale(1.3333)">
    <rect width="24" height="24" rx="4" fill="#FF0000"/>
    <path d="M20.5 7.8s-.2-1.4-.8-2c-.78-.82-1.65-.82-2.05-.87C15.08 4.75 12 4.75 12 4.75s-3.08 0-5.65.18c-.4.05-1.27.05-2.05.87-.6.6-.8 2-.8 2S3.3 9.4 3.3 11v1.5c0 1.6.2 3.2.2 3.2s.2 1.4.8 2c.78.82 1.8.8 2.26.88C7.8 18.75 12 18.75 12 18.75s3.08 0 5.65-.2c.4-.05 1.27-.06 2.05-.88.6-.6.8-2 .8-2s.2-1.6.2-3.2V11c0-1.6-.2-3.2-.2-3.2zm-12.2 6.5V9.7l5.5 2.3-5.5 2.3z" fill="white"/>
  </g>
  <text class="text" x="55" y="80" text-anchor="middle">YouTube</text>
</svg>
